<svg id="Layer_1" data-name="Layer 1" xmlns="http://www.w3.org/2000/svg" viewBox="0 0 600.02 601.95"><defs><style>.cls-1{fill:#fff;}</style></defs><title>straight-outta-logo</title><path d="M280.46,601.63c-62.13-4-117.82-25.32-164.52-63-14.32-11.55-26.8-24.09-41.48-41.79a144.86,144.86,0,0,0-13.77-14.44c-12.29-10.69-15.36-14.75-22.31-30.05-2.09-4.67-5.1-11-6.64-14.07-8.42-16.72-17.52-41.48-22.31-60.66-21-84.75-6.94-172.33,38.9-242.94,19.54-30,42.84-55.19,70.25-75.66,42.71-32,90.65-50.76,145.29-57.09C299.21-2.12,340.69.28,374.31,8.33c73.2,17.58,136.38,62.07,178.41,125.74,40,60.6,56.48,135.21,46.4,209.39-4.24,31-14.57,64.65-27.9,91.39a286.72,286.72,0,0,1-16.35,28c-3.26,5.1-7.56,12.29-9.46,16a85.72,85.72,0,0,1-23.48,28.58c-2.64,2.15-8.73,7.68-13.46,12.23a240.8,240.8,0,0,1-25.2,21.57C429.37,581.73,366,602.5,297.79,602c-7.87-.06-15.61-.18-17.33-.31ZM329,585.84c21.88-2.58,36.94-5.59,55.93-11.25C409.4,567.4,437.49,553.88,461,538c7.19-4.86,9-6.58,4.24-4.18-6.45,3.32-29.38,12.66-38.66,15.86l-10.32,3.5-9.83.43A90.85,90.85,0,0,0,392.94,555c-4.67,1.23-14.32,1.29-18.93.06a38,38,0,0,1-6.58-2.46l-3-1.54-6.64,1.54a253.59,253.59,0,0,1-52.73,6.27c-26.37.61-46-1.66-71.91-8.17-21-5.29-39.95-12.91-63.67-25.57-9.71-5.16-10.57-5.53-17.82-6.88-17.7-3.44-32-7.74-50.64-15.36-2.21-.92-1.6-.18,5.22,6.51,43.88,43.21,101.47,70,164.09,76.33,5.22.55,10.63,1.11,12,1.23,5.84.55,39.15-.18,46.71-1.11ZM318.56,543a205.65,205.65,0,0,0,28.95-4.36l6.27-1.35-.92-2.52a40.38,40.38,0,0,1-1.23-8.3l-.31-5.9-6.45,3.26c-14.69,7.38-23.78,9.71-35.83,9.22A45.11,45.11,0,0,1,294,530.47c-7.31-2.27-7.44-2.27-12.66-1.6-14.87,1.91-25-.12-33.86-6.88l-2.77-2.15L236.15,521c-4.73.68-14.07,1.41-20.83,1.6-8.79.25-11.8.55-10.76,1,39.64,15.36,78.91,22.06,114,19.42Zm73.57-4c8.91-4.55,15.86-17.09,17.39-31.71.86-7.87-1.84-18.68-6.82-27.16-3.2-5.47-9.34-11.86-13.21-13.77-2.34-1.17-2.7-1.23-4.36-.37l-1.78.92,1.29,1.78c2.09,2.95,5.35,10.51,7.07,16.29,3.07,10.69,3.32,33.13.37,41.61-1.66,4.79-2.27,5.84-5.78,9.53-2.52,2.7-3.44,3.26-5.29,3.32l-2.21.06,2.46.86c3.26,1.11,6.94.61,10.88-1.35Zm-17.64-3.07c-3-4.43-3.56-10-1.48-15.61.68-1.84,1.35-3.87,1.54-4.43s-.25-1.35-1.6-2c-3.26-1.66-5.78.25-7,5.35-.92,3.93,2.09,11.55,6.39,16,3.38,3.5,4.24,3.81,2.15.74ZM432,530.29c7.62-3.2,21-8.79,29.87-12.41,44.5-18.31,55.19-24.95,66.13-41.05,6.64-9.77,8.24-16.35,7.62-30.85-1.72-40.62-10.63-86.66-22-113.39-10.14-24-20.16-37.18-31.71-41.85l-3.32-1.35-3.69,1.23c-7.74,2.64-14.2,8.17-25,21.51-6.51,8.05-9.89,11.43-16.23,16.23-7.87,5.9-20.4,12.11-32.94,16.29-5.29,1.78-12.72,4.55-16.53,6.15-15.12,6.45-23.78,8.24-38.23,7.74-11-.31-16-1.41-26.24-5.65-9.77-4-30.18-16.41-39.58-24a31.15,31.15,0,0,0-4.55-3.32c-.49,0-.49,16.78,0,19.85.25,1.23.74,2.27,1.23,2.27,1.72,0,20.77,6.51,30.05,10.26,32.76,13.21,49.11,25.75,58.32,44.62,4.79,9.71,6,15,6.39,27.23.25,9.34.12,11-1,15.24A51.58,51.58,0,0,1,368,452.2l-1.23,2.4,1.48.37c1.11.25,2.58-.25,5.22-1.84,4.86-2.83,11.43-5.72,14.87-6.45,1.48-.31,8.11-1.35,14.69-2.21,17.95-2.4,23-3.75,31.84-8.67l3.87-2.15-3.56-3.87c-8.17-8.85-14.87-24.21-18.68-43.14-1.66-8.48-2.27-25.87-1-32.82l.8-4.61,2.21-.18,2.21-.18.43,4.18c1.29,12.54,9.22,38.23,15.61,50.27l1.29,2.46.06-18.31c0-19.73.49-26.18,2.77-37.67,3.5-17.45,10-29.87,21.39-40.93,4.18-4.06,5.22-4.79,6.94-4.79,2,0,2.09.12,2.09,2.21,0,1.41-1.41,5.1-4.24,10.88-11.25,23.23-15.49,41.55-16.41,71.41-.31,8.73-.18,12.11.25,11.68s3.32-6.27,6.51-13.15c7.62-16.23,7.93-16.66,10.57-16.66,1.84,0,2.09.18,2.09,1.72-.06,6.64-7.74,32.7-13.34,44.93-1.66,3.75-1.91,4.73-1.29,5.41s1.91.06,6.64-2.95c8.67-5.47,18.13-10.14,24.34-12,4.43-1.29,7.19-1.66,14.57-1.91l9-.37v4.48l-7.81,3.75c-4.36,2.09-11.06,5.47-14.93,7.5l-7.07,3.81,2.77.49c7.81,1.41,11.31,2.52,17.09,5.41A35,35,0,0,1,510.69,438c5.29,5.22,7.25,9.28,7.74,15.73l.37,4.61h-2.09c-1.66,0-3-.8-6.39-3.69-9.1-7.87-17-12.17-27.23-14.81-6.45-1.66-15.18-1.72-19.79-.06-4.86,1.72-12.91,5.22-12.91,5.65,0,.18,4.24,1.54,9.4,3.07l9.34,2.77.18,2.21.18,2.21-7,.37c-3.87.25-12.84.25-19.85.06a137.75,137.75,0,0,0-24.83.92c-6.58.74-12.6,1.48-13.4,1.66-1.29.25-.92.74,3.56,5a59.17,59.17,0,0,1,7.44,8.3c10.51,15.49,12.6,39.58,4.86,56.3a70.49,70.49,0,0,1-3.75,6.94l-1.35,1.91,1.48-.43c.8-.25,7.68-3.13,15.3-6.33ZM314.26,519.41c6-1.29,12.11-3.87,22.43-9.59,12.48-6.88,18.19-9.59,22.43-10.69s13.4-1.23,17.45-.25c3.81.86,4.12.31,2.83-5.41-1.48-6.7-5.59-15.3-8.79-18.13-7.44-6.7-34.6-14.87-45.48-13.71a59.89,59.89,0,0,0-15.92,4.3c-4.18,1.84-10,5.29-10,5.9,0,.86,6.82,3,9.53,3a65.3,65.3,0,0,0,9.34-1.29c9.89-1.91,13.09-1.17,13.09,3.13,0,2.09-.55,2.89-5.65,8.05a82.6,82.6,0,0,1-11.25,9.46c-10.57,7.07-25.51,13.4-40.69,17.27-3.81,1-6.94,2-6.94,2.21,0,1.17,6.94,1.78,12.11,1.11,5-.61,7.74-1.29,27.53-6.45,4.73-1.23,9.53-2.15,10.76-2,2,.18,2.15.37,2.34,2.4s-.12,2.46-2,3.87c-2.4,1.84-11.31,6.45-12.66,6.58-1,.12,2.34,1,4.06,1.11a43,43,0,0,0,5.53-.86ZM218.38,505c30.48-2.21,55.74-7.74,73.26-16.16l3.93-1.84-3.32-1.35a39.87,39.87,0,0,1-5.59-2.77l-2.34-1.41-9,2.21c-10.2,2.52-16.47,3.26-32.39,3.81a115.81,115.81,0,0,0-18.56,1.91c-16.9,3.32-29.56,3.38-45.85.25a112.17,112.17,0,0,0-13.89-1.84c-11.74,0-27.84-3.13-44.5-8.73C100.49,472.47,91,467.37,84.7,459.94c-1.54-1.84-5.29-6.15-8.36-9.53-8.48-9.53-10.69-14.63-10.69-24.71.06-16.35,6.21-25.81,23.35-35.89,4.55-2.7,10.51-6.39,13.15-8.17,8.79-6,14.44-8.3,28.95-11.55,10.14-2.27,25.63-6.08,34.11-8.36a55.05,55.05,0,0,1,25.51-.92c6.64,1.29,8.79,1.35,15.92.06a70,70,0,0,1,23.72.31,92.82,92.82,0,0,0,16.47,1.23c14.32,0,18.38,1,35.77,9.22,5.59,2.64,13,5.84,16.59,7.07,8.48,3,9.77,3.75,20.28,10.82,14.63,9.83,20.47,15.67,23.48,23.29,2,5.1,2.21,13.46.61,18.87A38.73,38.73,0,0,1,335,445.45l-2.15,2.27,1.72.37c1,.18,4.79.8,8.42,1.35l6.7,1,1.48-1.78c5.84-7,7.81-17.33,5.16-27.59-2.52-10-8.11-18.93-17.21-27.53-11.06-10.63-28.21-19.11-58.94-29.32a164.4,164.4,0,0,0-37.92-8.3c-5.1-.49-13.77-1.78-19.24-2.77l-10-1.84-4.43,1.35c-3.93,1.23-5.9,1.35-18,1.41-14.93.06-19.11.8-26.61,4.55-10.45,5.29-15.92,6.33-24.71,4.73-4.67-.86-5.65-.86-9.83,0-14.07,2.89-35.89,12.23-49.78,21.39-7.5,5-18,15.12-22,21.26-7.13,10.88-9.53,18.38-8.17,25.63,1.11,6.21,5,15.43,8.85,21.26,12.11,18.13,41.91,35.46,75.9,44.07,27.29,6.88,58.39,9.83,84,8Zm-1.23-28.7c5.41-.8,14.69-1.78,20.59-2.09,17.33-.92,29.75-3.13,39-6.88a93.2,93.2,0,0,0,12-6.64c3.87-2.58,10.2-6.39,14.07-8.48,9.83-5.35,13.77-8.17,19.48-13.83,13-13,11.43-20.47-7.13-34.36-9.28-6.94-13.71-9.4-22.06-12.17-4.24-1.41-12.54-4.86-18.5-7.68-16.1-7.56-16.72-7.74-29.5-8A107.3,107.3,0,0,1,226,374.49c-8.05-1.48-8.67-1.48-13.83-.61-3,.49-8.67,1-12.54,1.23-5.84.25-8,.12-12.48-1-7.44-1.78-9.28-1.66-19.48,1.17-4.92,1.35-13.46,3.44-19,4.61-22.56,4.86-28.09,6.88-37.8,13.83-2.7,1.91-7.93,5.22-11.68,7.38-9.77,5.53-11.31,6.7-14.2,10.63-7.87,10.63-6.94,18.38,3.5,29.68,2.83,3.07,6.51,7.19,8.17,9.16a38,38,0,0,0,7.25,6.27c12.48,8.05,35.89,14.5,59.8,16.47,6.27.49,14.87,1.66,19.17,2.52,14.26,2.95,17.88,3,34.29.43Zm336.73-42.53c12.91-23.42,22.8-51.56,28.58-81.19a269.65,269.65,0,0,0-.31-105.71c-13.58-68.4-49.47-127.59-103.37-170.61-45.23-36.08-97.47-56.36-157.52-61.15-11.19-.86-38.9-.37-50.95,1-35.52,3.87-65.08,12.23-94.95,26.67A280.53,280.53,0,0,0,58.65,147.39c-27.23,43.51-42.1,92.13-44.31,144.3-.92,21.88,2.77,54,9,79.28a387.05,387.05,0,0,0,12.17,38.1c1.66,4.3,1.84,4.49,2.4,3.07,3.26-8.36,9.77-19.11,15.18-25.08L56,383.8l-2.52-8.42a260.15,260.15,0,0,1-9.1-45.6c-1.48-12.41-1.48-41.61,0-54.14C49.74,230,62.46,193.41,85.08,158.75c17.39-26.61,38.17-48.24,64.65-67.3,18.68-13.46,35.15-21.57,58.2-28.7a86,86,0,0,1,13.4-3.2l4.18-.37-.18,6.39L225.15,72,213.47,76C183.79,86.28,163.63,98,140,118.73A240.33,240.33,0,0,0,71,222.41c-1.54,4.61-2.83,8.6-2.83,8.73,0,.61,19.54-9.46,29.19-15.06,15.86-9.16,33-20.71,42.71-28.82,1.84-1.54,7.62-6.58,12.84-11.12,20.34-17.82,29.13-24.64,33.56-25.87,1.66-.49,4.43-.55,8.3-.25a73.53,73.53,0,0,0,7.38.43c.86,0,5.59-.25,10.51-.49,8.11-.37,9.16-.31,11.68.8,4.61,2.09,8.85,6,16.47,15.18,9.16,11,17.15,18.13,31,27.41,3.69,2.46,7,5,7.5,5.78s.92,4.67,1.17,11.74a129.32,129.32,0,0,0,1.11,14.44c.74,3.69.8,3.07.61-8.3-.18-9.59,0-13.52.8-17.82.55-3,1.23-10.2,1.54-16,.55-11.12.8-12.17,5.16-22.25a93.7,93.7,0,0,0,3.44-9.53c2.77-9.22,5.53-13.4,16.59-24.77,4.55-4.73,11.19-12.35,14.69-16.9,6.39-8.24,24.28-30.24,31.28-38.41,2-2.34,3.56-4.49,3.32-4.67-.55-.55-14.75-3.32-22.86-4.49a225.56,225.56,0,0,0-31-2.21h-8.79l-.43-6.51c-.25-3.56-.25-6.64,0-6.88s7.25-.43,15.55-.43c19.3.06,29.38,1.23,49.54,5.65L370.69,54,376,51.19c7.81-4.12,11.31-5,20-5,8.48,0,13.21,1,19,4.12,9,4.73,16,15.43,18.87,28.64.61,3,.68,3,7.5,7.07,27.1,16.16,53.35,41.48,72.71,70.12,24,35.4,38.6,76.64,43.33,122,1.17,10.76,1,39-.25,50.09-2.09,18.31-6,36.69-10.76,50.52l-2.34,6.88.8,4.79c1.54,9.1,3.93,31.84,4.3,41.24.18,5.1.43,9.34.55,9.34s2-3.32,4.18-7.31ZM80.77,365c11.19-6.33,21.69-10.32,38.9-14.81l9.46-2.46,5.29-5.16c6.58-6.45,9-8.3,14.63-11.06,7.74-3.93,13.21-5,24.15-5,11.49.06,15.12.92,27.29,6.51,6.64,3.07,9.28,3.87,15.06,4.92,4.79.8,7.25,1,7.74.55s3.2-4.49,6.15-9.16c11.62-18.31,21.26-29.38,32.14-36.88,3.2-2.09,5.59-4,5.47-4.18a45.33,45.33,0,0,0-6.94.37c-16.1,1.66-41.73,2-97,1.35-56-.68-70.86-1.17-87-2.83-4.92-.49-9.16-.92-9.34-.92s-.43-1-.43-2.4c0-2.21.12-2.4,2-2.77,15.67-2.83,52.3-3.44,134.41-2.21,39.52.55,57.53,1.29,64.22,2.64,3,.61,3.69,1,4,2.15l.31,1.48,1.54-1.72c2.7-2.95,10.32-7.5,16-9.53,8.24-2.89,7.93-2.52,6.33-8.67a62.69,62.69,0,0,0-3.2-9.1c-1.72-3.63-1.84-3.75-1.41-1.54a65.3,65.3,0,0,1,.43,8.36c0,6.45-.49,7.68-4.12,9.53-3.32,1.72-13.64,2.09-60.72,2.09-41.79,0-162.13-1.48-165.75-2-1.54-.25-1.6.06-2.7,13.09-.86,10.2-.37,31.71,1,42.53A294.15,294.15,0,0,0,66,364.33l2.34,8.42,3.44-2.34c1.91-1.29,6-3.75,9-5.47Zm459-20c7.38-40.87,4.06-81.56-10-122.86a249.75,249.75,0,0,0-39-71.66c-14.26-17.82-32.27-34.72-49.54-46.4l-4.55-3,.37,2c1.11,5.9,2.46,32.94,2.52,47.88.06,29-2.95,42.28-12.48,54.88-2,2.58-2.52,3.81-2.52,5.84A49.3,49.3,0,0,1,421.61,226a28.58,28.58,0,0,1-3.38,5.65l-2.15,2.83,9.28,3.56c18,6.76,40.5,17,47.69,21.57a55.73,55.73,0,0,1,13.4,13c2,2.77,4.73,5.35,9.71,9,12.17,9.1,19.48,18.44,27.41,35,4.67,9.83,7.44,17.52,10.88,30,3.26,11.74,2.89,11.86,5.29-1.6Zm-379.14.55a77.42,77.42,0,0,1,18.74-3.87l5.84-.43-3.07-.74a31,31,0,0,0-14,.12c-4.86,1-13.21,4.86-16.1,7.31l-1.84,1.6,4-1.48c2.21-.86,5.1-2,6.45-2.52Zm200.54-2c2.89-.86,9.71-3.44,15.18-5.78s11.92-4.79,14.44-5.53c15.67-4.49,29.25-11.86,39.33-21.33,2.7-2.58,8-8.17,11.74-12.54C452.09,286.48,457.56,282,466,278.49c1.91-.74,3.38-1.6,3.32-1.91-.25-.86-5.1-4.67-8.79-6.88q-8.29-5.07-31-13c-7.87-2.77-14.44-4.92-14.57-4.86s2,1.54,4.55,3.07c7,4.24,14.63,10.63,19,16,3.32,4.06,3.87,5.1,3.87,7.19,0,2.34-.12,2.46-1.91,2.46a9.73,9.73,0,0,1-4.43-1.72,110.59,110.59,0,0,0-18.56-10l-6.7-2.89-2.34,3.63a25,25,0,0,0-2.34,4.06,10.8,10.8,0,0,0,3,2.64,72,72,0,0,1,13.15,12.72c2.95,3.75,3.56,4.92,3.56,6.94,0,2.34-.06,2.4-2.27,2.4-1.72,0-4.73-1.35-12.17-5.47-5.41-3-11.68-6.21-13.95-7.13l-4.18-1.72-4.12,2c-2.34,1.11-4.24,2.09-4.36,2.15s1.66,3.81,3.81,8.36c4.61,9.77,7.74,18.56,8.17,23.48l.37,3.5h-2.21c-2,0-2.46-.37-5.16-4.12-1.66-2.34-6-9-9.77-14.87l-7.07-11.31c-.37-.55-8.3,1.29-9.59,2.21-.55.37-.8,2.52-.86,6.51,0,3.26-.49,10.32-1,15.73l-1,9.83-2.27.18c-2.64.25-2.21,1.41-5.1-13.4-1.17-6.27-2.64-13-3.13-14.87l-1-3.5-3.93-.37a17.53,17.53,0,0,0-4.73-.12c-.43.12-2.09,3.44-3.75,7.25-4.73,10.94-9.89,20.83-13,24.71-2.58,3.2-3,3.5-5.22,3.5s-2.46-.12-2.46-1.6c0-2.21,5-19.3,8.36-28.15a58.61,58.61,0,0,0,2.46-7.56c-.49-.49-13.71,4.55-22.92,8.79C296.54,305.75,293,307,291.19,307c-2.34,0-2.46-.06-2.46-1.91a7.25,7.25,0,0,1,1.29-3.69c1.78-2.52,8.48-7.74,14.93-11.68l5.41-3.32-3.56-1c-4.3-1.35-6.21-1.11-12.35,1.48-6.82,2.83-11.49,6.08-13.4,9.4-1.6,2.64-1.66,3-.92,5.41,2.64,9,14.81,20.34,33.68,31.65,20,11.92,32.27,14.57,47.32,10.2Zm-97-5.47A119.14,119.14,0,0,1,267,312.67a61.51,61.51,0,0,0,1.29-7.25c-.37-.31-11.49,11.43-15.49,16.41-2,2.4-5.78,7.62-8.36,11.55-3.69,5.53-4.61,7.25-3.81,7.38,2.83.68,21,3.69,22.19,3.75s1.35-.06,1.35-6.39ZM341.29,273c19.24-5.65,34.11-17.52,44.62-35.46,2.58-4.43,3.87-5.35,8.79-6.58a18.09,18.09,0,0,0,10-5.78c2.77-3,3.56-4.24,4.79-7.81l.86-2.34-4.12,4.12a34.54,34.54,0,0,1-9,6.64A68.35,68.35,0,0,0,386.83,233c-7.62,6.64-12.17,8.3-22.06,8.3-5.65,0-10.39-1-18.07-3.69-6.58-2.34-16.23-4.3-21-4.3-4.18,0-14.69,2.46-17.52,4.18-4.67,2.7-5.47,8.6-2.34,17.88,5.41,16.1,10.08,20,23.42,19.48a45.38,45.38,0,0,0,12-1.91Zm35.71.55c7-2.89,13.21-9.28,15.3-15.67a11.88,11.88,0,0,0,.8-3.38c-.18-.12-2.15,2.09-4.36,4.92a102.35,102.35,0,0,1-9.46,10.14,62.93,62.93,0,0,0-5,5,17.86,17.86,0,0,0,2.7-1Zm-275.21-30c6-2,20-8.3,19.54-8.79-.31-.37-9,3-17.88,6.88-10.94,4.73-11.25,5.1-1.66,1.91ZM185,184.58c5-5,8.67-6.33,12.41-4.61,1.41.61,3,2.64,7.13,9.1,1.11,1.72,1.23,1.84.92.61-.18-.86-.55-4.61-.74-8.42l-.37-6.88,1.91-1.84c1.6-1.6,2.34-1.91,5-1.91,4.79,0,7,1.29,11.31,6.76l1.72,2.15-1.54-4.06c-1.91-5.16-4.3-8.85-7-10.69-2-1.35-2.21-1.35-5.22-.55-4.06,1.11-6.58,1-12.41-.06-4.61-.86-4.79-.86-7.56.55C188,166,180,171.55,180,172a11.43,11.43,0,0,0,2.46-.06l2.46-.25v2.77c0,2.15-.86,4.55-4.06,10.94-3.87,7.87-3.93,8.11-1.72,5.47,1.29-1.54,3.93-4.36,5.9-6.33Zm235.14,6.15c5.22-8.85,7.38-29,5.72-53.65-1.41-21-3.75-46-4.73-50.58-3.32-15.61-11.06-24.89-22.68-27-5.1-.92-11.92,1.35-18.56,6.27C372.76,71,341.54,107.46,336,117.05l-1.11,1.84,4.79.68c10.39,1.54,21,5,28.64,9.53,2.58,1.54,2.83,1.84,2.83,4.06s-.12,2.46-1.72,2.46a79.18,79.18,0,0,1-9.71-1.84c-12.41-2.83-19.17-3.44-25.14-2.21a38,38,0,0,0-19.91,10.76L310,147l12.91.37c11,.31,13.95.61,20.28,2,27.9,6.39,48.67,18.5,61.46,35.71l3.2,4.3,5.47,1.6c3,.92,5.53,1.66,5.59,1.72s.61-.86,1.29-2ZM357,181.08a10.06,10.06,0,0,0-4.3,0c-1.78.43-1.41.49,2.15.49S358.74,181.51,357,181.08Z"/><path d="M270.2,578.53c-5.59-1.91-6.64-2.95-6.64-6.64,0-2.83.12-3.07,2.4-4.18,5.41-2.83,14.38-3.07,19.17-.61,3,1.54,3.63,2.7,3.63,7.25,0,5-.86,5.59-8.6,5.59a27.9,27.9,0,0,1-10-1.41Z"/><path d="M237.93,569.8c-1.84-.8-2-1.11-2-3.69v-2.77h4.18c5.53,0,7,1,6.76,4.49l-.18,2.58-3.38.12a13.63,13.63,0,0,1-5.35-.74Z"/><path d="M454.39,510.06c-.25-.61-2-5.53-3.75-10.94-5-14.63-8.85-21.94-16.47-31.34-2.58-3.26-3.44-4.79-3.44-6.27,0-2,.06-2,2.83-2,4.61,0,10.14,3.07,15.92,8.91,5.35,5.35,8,9.89,10,17,1.29,4.73,1.48,19,.31,23.17-.74,2.4-.92,2.58-2.83,2.58-1.41,0-2.21-.37-2.52-1Z"/><path d="M237.75,469.38c-4.12-.86-5-1.72-4.79-4.55l.18-2.58,5.35-.18c3.69-.12,6,.12,7.5.74,2,.86,2.21,1.17,2.21,3.38s-.18,2.46-1.91,3.07a17,17,0,0,1-8.54.12Z"/><path d="M195.53,466.73l-5.1-1.23v-2.7c0-2.4.25-2.89,2-3.93,6.45-3.93,23.66-2.46,24.83,2.15.68,2.77,0,5.47-1.6,6.27-2.46,1.23-14.14.92-20.1-.55Z"/><path d="M153.8,463.23c-5-2.27-6.64-6.08-6.27-14.5.18-5.1.49-6.21,2.52-10.32,5.59-11.31,19.61-18.87,34.79-18.87,9.28,0,13.34,1.72,15.92,6.76,1.29,2.46,1.41,3.44,1.23,9.22-.31,8.17-1.54,10.94-7.5,17-5,5-11.68,8.6-19.67,10.69C168.18,464.83,157.43,464.89,153.8,463.23Z"/><path d="M234.68,456.41c-7.62-2-14-5.53-18.31-10.08-5.16-5.53-6.45-9.1-6.51-17.88,0-5.84.18-7.13,1.35-9.34,2.4-4.55,6.33-6.33,13.95-6.33,9.89,0,18.07,3.63,25.87,11.37,3.75,3.75,5.53,6.08,7.38,9.77,2.21,4.61,2.4,5.35,2.58,11.19.25,7.56-.49,9.59-4.36,11.37-3.63,1.6-15.43,1.6-21.94-.06Z"/><path d="M121.16,453.7c-1.72-.8-2-1.23-2-3,0-2.58,1.41-3.93,5.29-5.1,3.38-1,13.52-1.17,16-.18,2.15.8,2.64,1.54,2.64,4.36,0,3.63-2.09,4.43-12,4.61-6,.12-8.48,0-10-.68Z"/><path d="M271.86,449.83c-4-1.23-4.61-1.78-4.61-4.24s1.54-3.44,7.5-4.86c4.49-1,15.73-1.23,19.11-.25,2.09.55,2.27.8,2.27,2.7s-.25,2.27-3.81,4.06c-7.25,3.69-14.14,4.55-20.47,2.58Z"/><path d="M106.84,435.57c-4.55-.74-5.53-1.54-5.53-4.67,0-2.21.31-2.89,1.72-3.87,2.77-2,5.59-2.58,11.43-2.58,4.49,0,6,.25,7.62,1.23s2,1.54,2,3.87c0,2.89-.92,4.18-3.81,5.29-2.27.86-10,1.29-13.4.74Z"/><path d="M281.39,433.61c-11.31-1.41-19.73-5.72-22.8-11.68a15.91,15.91,0,0,1,.06-12.23c2.09-4.06,6.76-7.31,14.14-9.83,5.59-1.91,18.25-2.4,24-1,9,2.27,16.29,7.19,19.05,13,1.48,3.07,1.72,10.51.37,13.09a16.4,16.4,0,0,1-6.33,5.9c-5.1,2.58-19.11,3.93-28.46,2.77Z"/><path d="M136.77,418.61c-8.67-1.66-16.16-6.15-18.5-11C117,405,117,398,118.15,395.69c2-3.87,7.62-7.56,14.2-9.4,2.09-.55,6.33-.86,13.21-.86,9.1,0,10.57.12,14.2,1.48,5.22,1.84,10.2,5.22,12.41,8.42,1.91,2.77,2.77,8.05,2,12.17-.86,4.49-6.08,8.54-13.71,10.51-5.22,1.41-17.88,1.72-23.72.61Z"/><path d="M93.75,416.64c-.92-.25-1-.8-.92-3.13.18-2.83.25-2.95,3.5-4.55,2.83-1.48,4.12-1.72,8.36-1.72,5.65,0,6.45.43,6.45,3.69,0,2.7-1.17,3.87-4.86,5.22-2.52.86-10,1.17-12.54.49Z"/><path d="M209.48,406.87c-11.37-2-17-4.86-19.67-10.14-.86-1.66-1.23-3.56-1.23-6.76,0-4.36,0-4.43,2.64-7,4-4.06,9.4-5.53,19.79-5.47,11.8,0,18.62,2.4,24,8.36,3.26,3.63,4.24,6.33,3.87,10.69-.43,5-3.69,7.87-10.94,9.4-3.56.8-15.86,1.41-18.44.92Z"/><path d="M260.49,395.75c-.49-.18-2.09-.86-3.5-1.54-2.52-1.17-2.64-1.35-2.64-3.87s.12-2.7,2.34-3.5c3.63-1.23,10.94-1,14.44.55,2.83,1.29,2.89,1.41,2.89,4.12,0,2.46-.18,2.89-1.84,3.75s-9.59,1.23-11.68.49Z"/><path d="M174.26,389.79c-3.26-1.17-4.12-2.09-4.12-4.36,0-3.13,1-3.56,7.87-3.26,7.56.31,9.34,1.17,9.34,4.79,0,1.78-.31,2.58-1.17,3.07-1.72.86-9.16.74-11.92-.25Z"/><path d="M553.15,407.73c-1.11-1.11-.86-7.87.43-11.68,1.91-5.47,2.4-6,5.65-6,2.7,0,2.95.12,3.56,1.91,1.35,3.93.43,10.39-2.15,14.26-1.35,2-1.78,2.27-4.12,2.27a6.07,6.07,0,0,1-3.38-.74Z"/><path d="M33.4,376.76c-3.81-3.87-4.61-16.35-1.35-21.26A4.11,4.11,0,0,1,36,353.29c2.34-.18,2.64,0,3.5,1.66,2.46,4.67,3.81,18.56,2.21,21.63-.86,1.54-6.76,1.72-8.3.18Z"/><path d="M554.26,372.21a23.73,23.73,0,0,1,1.91-8L558,359.3h2.4c2.64,0,3.07.74,3.07,5.53,0,6.27-2.77,10.45-6.88,10.45h-2.34Z"/><path d="M565.45,349.47c-4.86-3-5.22-13.21-.68-17.58,1.66-1.6,2.27-1.78,6-1.78,3.26,0,4.49.31,6,1.35,4.86,3.5,5.29,13.89.68,17.76-2.34,2-8.85,2.15-12,.25Z"/><path d="M25.78,322.61c-3.69-1.91-4.67-3.93-4.67-9.28,0-3.63.31-5.22,1.23-6.88,3.26-5.59,12.66-5.72,15.86-.12,1.48,2.46,2,8.48,1.11,11.31a11.09,11.09,0,0,1-2.52,3.87c-2.4,2.27-7.74,2.83-11,1.11Z"/><path d="M567.23,293.67c-3.38-1.66-4.61-3.87-4.86-8.67-.18-3.26,0-4.86,1-7,1.78-4,4.3-5.47,8.91-5.16,6.27.37,9,3.81,9,11.12,0,7.13-3.2,10.82-9.34,10.82a12.07,12.07,0,0,1-4.73-1.11Z"/><path d="M26.33,274.74c-1.17-1.35-1.54-7.93-.68-11.12A13,13,0,0,1,28,259.13c1.35-1.66,1.91-1.91,4.12-1.72,3.32.25,4.06,1.72,4.06,8.48,0,3.93-.31,5.78-1.17,7.38-1,2-1.35,2.15-4.49,2.34-2.52.12-3.56-.06-4.18-.86Z"/><path d="M565.57,244c-2.27-2.46-3.44-7.31-3.2-13.4l.18-5.22h-2.83c-2.09,0-3.13-.37-4.12-1.41-2.46-2.58-4-7.19-4.3-12.54l-.31-5.1h2.83c2.46,0,3.13.31,5,2.15,3.63,3.63,4.73,6.51,4.49,11.62l-.18,4.36,2.46-.18c3.32-.31,6.21,1.72,8.24,5.72,1.29,2.46,1.6,3.93,1.6,7.68,0,6.45-1,8-5.29,8-2.52,0-3.32-.31-4.61-1.66Z"/><path d="M37.4,230.43c-3.81-1.23-5.53-3.81-5.53-8.3,0-4.18,1-7,3.44-9,1.84-1.66,2.58-1.91,5.84-1.91,6.51,0,8.54,2,8.54,8.79,0,4.61-1.29,7.56-4.24,9.46a10.43,10.43,0,0,1-8.05,1Z"/><path d="M46.43,198.47c-.25-.18-.43-2.15-.43-4.36,0-4.67,1-7,4.73-11.19,2.4-2.7,3.07-3.07,5.16-3.07h2.4v2.64c0,5.47-3.2,13.27-6.27,15.49-1.41.92-4.86,1.29-5.59.49Z"/><path d="M547.13,179.72C544.3,177.2,542,172.41,542,169v-2.64h2.4c2.7,0,6.39,2.58,10.69,7.31,2,2.27,2.34,3,2.15,5.16l-.18,2.58-3.81.18c-3.5.18-3.93.06-6.08-1.84Z"/><path d="M197.8,147.33c-3-3.13-4-6.88-3.93-14.5.06-11.62,3.75-19,12.66-25.51l4.67-3.38.25-6.45c.18-5.72.43-6.82,2-9.83a68.32,68.32,0,0,1,8.05-9.83c8.6-9,8.24-8.24,8.24-16.59,0-10.94,2-16.29,8.42-22.13,4.67-4.24,9.65-5.78,18.93-5.78,8,.06,12.54,1.11,19.79,4.61,6.39,3.07,12.35,8.48,14.75,13.34,1.54,3.13,1.72,4.12,1.72,10s-.12,6.76-1.84,10.14-1.84,4.24-1.84,10.45c-.06,7.56-.92,10.57-4.12,14.69-4,5.22-11.49,9.89-19,11.86l-4.12,1-.68,4.3c-1.72,10.51-6.45,17.09-14.32,19.85a49.57,49.57,0,0,1-10,1.41c-9.28.49-12.29,1.72-15.18,5.9-4.24,6.08-5.29,7-8.24,7-2,0-2.83-.31-3.32-1.17-.8-1.6-.74-7.87.18-10.32a21.57,21.57,0,0,1,12.72-11.92,86.44,86.44,0,0,1,8.6-1.23c7.74-.68,9.89-1.35,12.66-3.81,3.32-2.89,4.49-5.84,5.16-12.72.74-7.68,1.11-9.1,2.46-9.83a8.14,8.14,0,0,1,6-.06c.74.37,2.21.18,4.67-.61,6.33-2.15,11.25-5.84,13.4-10,1.23-2.4,1.23-2.52.18-7.31-1.41-6.45-1-9,2.09-13.4,2.77-3.93,2.95-4.73,1.66-7.25-3.13-6-15.61-12.35-24.34-12.35a16,16,0,0,0-10.69,5c-3.2,3.75-3.69,5.65-3.69,14.69-.06,10.63-.68,12-9.1,20.22-8.11,7.81-9.34,10.2-9.16,17.58s-.68,8.67-7.38,13.58q-12.08,8.67-10.76,19.85c1.17,9.59,1.17,10.88.12,11.92a5.18,5.18,0,0,1-3.26,1c-1.78,0-2.7-.49-4.49-2.4Z"/><path d="M522,143.09c-4.24-2.64-9.53-10.2-9.53-13.77,0-2.27.06-2.34,2.15-2.34,3.87,0,12.84,5.29,15.06,9a9.47,9.47,0,0,1,1.23,5.1v3.13h-3.5a10.58,10.58,0,0,1-5.41-1.11Z"/><path d="M155.09,308.29c-16.53-.68-38.6-2.77-42.84-4.06-.8-.25-1.11-1-1.11-2.4,0-2.46-.25-2.4,12-3.5,12-1.11,86.35-1.11,103.74,0,7,.49,14.07,1,15.67,1.23,2.77.43,2.89.49,3.07,2.7.18,2,0,2.27-1.84,2.83-2.64.86-9.4,1.78-18.62,2.58-9.77.86-54.58,1.23-70.06.61Z"/><path d="M311.87,258.45c-3.44-.86-4.67-2.15-4.67-5,0-2.15.18-2.46,2.27-3.32,2.89-1.23,13.15-1,15.86.37,1.66.86,1.84,1.23,1.84,3.69s-.18,2.83-1.72,3.56c-2.27,1.11-10.45,1.48-13.58.68Z"/><path d="M316.05,246.59c-6.21-1.17-7.13-1.78-6.88-4.55.18-2.15.37-2.34,3.56-3.5,5-1.72,18-1.72,22.74.06,3.26,1.23,3.38,1.35,3.56,3.75s.12,2.52-2.46,3.56c-3.5,1.41-14.63,1.78-20.53.68Z"/><path d="M415.12,177.88c-2.52-8.67-8.48-17.95-24.15-37.49-6.45-8.11-8.17-10.63-8.17-12.11,0-1.84.12-1.91,2.64-1.91,2.34,0,3.63.61,9.1,4.24a126.36,126.36,0,0,1,10.94,8.3,42,42,0,0,0,4.73,3.87c.12-.12-.06-5-.43-10.94a274.2,274.2,0,0,1,1-43.7l1-9.71h2.34c2.7,0,2.21-1.66,4.55,16.9,1.84,14.87,3.2,31.77,3.69,46.71.31,10.45-.43,31.71-1.29,36.75-.37,2.15-.55,2.27-2.77,2.27s-2.34-.06-3.26-3.2Z"/><path class="cls-1" d="M-.07,302.57V0H602V605.13H-.07ZM321.76,599.29c32.94-2.64,61-9,89.61-20.4a285.09,285.09,0,0,0,53.78-28.15,260.46,260.46,0,0,0,41.48-32.94c4.73-4.55,10.82-10.08,13.46-12.23A85.72,85.72,0,0,0,543.57,477c1.91-3.69,6.21-10.88,9.46-16,13.89-21.39,22.62-39.15,30.3-61.52a299.41,299.41,0,0,0-12.42-227.94c-25.08-52.18-61.77-93.42-111.3-124.94C386.41,0,288.45-11,202.47,17.6a291.49,291.49,0,0,0-82,43.27C74.94,94.79,39.23,143.53,19.69,198-.78,255.2-3.6,315.55,11.27,375.78c4.79,19.17,13.89,43.94,22.31,60.66,1.54,3.07,4.55,9.4,6.64,14.07,6.94,15.3,10,19.36,22.31,30.05A146,146,0,0,1,76.3,495c14.69,17.7,27.16,30.24,41.48,41.79,46.71,37.67,102.39,59,164.52,63a389.22,389.22,0,0,0,39.46-.49Z"/><path class="cls-1" d="M280.46,588.79c-25.69-2.58-34.17-3.93-50.7-8-47.38-11.68-88.93-34.42-123.65-67.73-5.72-5.53-17.58-18.56-16.84-18.56.25,0,3.07,1.35,6.39,3,15.73,7.87,37.12,14.87,57.83,18.87,7.25,1.35,8.11,1.72,17.82,6.88C195,535.93,214,543.55,235,548.84c25.44,6.39,45.91,8.79,70.06,8.17a263.22,263.22,0,0,0,53.41-6.82l6.7-1.54,3.56,1.84a31.72,31.72,0,0,0,22.37,2.64,89.81,89.81,0,0,1,13.52-1.4l9.83-.43,10.14-3.44c13.15-4.49,47.14-19.05,61.95-26.55,1.72-.86,3.2-1.48,3.2-1.29,0,.49-18.68,14.26-26.86,19.79-23.54,15.92-51.63,29.44-76.09,36.63-18.93,5.65-33.86,8.6-55.93,11.25-7.56.92-44.25,1.72-50.4,1.11Zm5.1-11.68c1.48-1,1.84-3.75.74-5.84-.74-1.35-4.36-3.26-7.19-3.81-2.58-.49-8.42.55-11.37,2.09-4.24,2.15-2.64,4.73,4.3,7.13,5,1.66,11.43,1.91,13.52.43Zm-40.69-9c.74-1.17-2.15-2.95-4.73-2.95-3.07,0-3.26,1.54-.37,2.77C242.17,569,244.26,569.13,244.87,568.14Z"/><path class="cls-1" d="M284.77,544.85a271.28,271.28,0,0,1-53.28-9.77c-13.09-3.81-34-11.37-37.31-13.46-.43-.31,6-.68,15.36-.86,14.57-.31,30.36-1.72,34.91-3.2.61-.18,2.34.68,4.36,2.21,9.53,7.19,18.25,9.1,31.77,7.07,6.27-1,5.78-1,15.55,2,6.45,2,7.74,2.21,14.75,2.21,6,0,8.79-.25,12.84-1.35,6.51-1.72,16.41-5.9,24.28-10.32a41.32,41.32,0,0,1,6.27-3.13,7.32,7.32,0,0,1-.43,2.64c-1,3.69-.31,11.12,1.54,15.61a18.28,18.28,0,0,1,1.35,4.12c-.49.49-10.88,2.77-19.05,4.18-15.36,2.64-34.36,3.38-52.92,2.09Z"/><path class="cls-1" d="M378.8,542.08c-9-2.89-14.75-11.12-14.75-21.14,0-5.53,1.23-8.3,4.24-9.53,2.34-1,4.67-.55,8,1.54l2.15,1.29-1.84,3.63c-3.69,7.25-3.69,11-.18,16.47,2.52,3.81,4,3.93,7.31.68,5.35-5.22,7.44-10.39,8.17-20.65,1.35-17.45-2.21-33.8-9.71-44.68a15.62,15.62,0,0,1-1.91-3.26c0-.92,4.67-3.26,6.51-3.26,4.73,0,13,7,17.7,15.12,8.79,15,9.34,33.06,1.48,49.35-2.89,6.08-7.19,10.76-12.23,13.34a21.72,21.72,0,0,1-15,1.11Z"/><path class="cls-1" d="M410,539.5c4.79-5.35,10-14.81,11.55-21.33,3.5-14.44.31-32.39-7.93-44.37a62,62,0,0,0-13.83-13.64c-4.3-3-5.53-2.58,13.77-4.73,12.84-1.48,16-1.6,29.19-1.35,8.11.18,17.09.12,20-.06,4.73-.37,5-.49,3.56-1.11-2.52-1.11-20.4-6.33-21.63-6.33-2.27,0-.43-1.41,5.47-4.06,8.91-4,13.58-5.59,18.13-6,5.65-.61,14.69.55,21.14,2.77,9.28,3.13,12.84,5.29,25.75,15.86l1.84,1.54-.43-3.07c-1.23-8.42-7.68-15.86-18.31-21.08-7.62-3.75-11.74-4.92-19.73-5.41l-6.08-.37,4.24-2.64c2.27-1.48,10.32-5.78,17.88-9.53s13.64-7,13.64-7.19-3.26-.12-7.19.06a50.83,50.83,0,0,0-12.78,2c-6,1.78-16.84,7.19-26.3,13.21l-6.08,3.81L454.32,425a7.11,7.11,0,0,1-1.78-2.46c-.25-.61.92-4.12,2.64-8.05a212.53,212.53,0,0,0,12.72-41.36c.68-3.2-2.64,3-9.83,18.44-4.3,9.16-8,16.84-8.3,17.09-.86.92-1.41-13.52-1-24.46,1.17-28.46,5.47-46.34,16.47-69,2.34-4.86,4.18-9,4-9.1-.49-.49-10,9.28-13,13.21-7.56,10.26-11.49,20.47-14.63,37.31-1.17,6.39-1.35,10.32-1.66,31.9l-.37,24.58L437,408.67c-7.25-12-16.23-39.39-17.7-53.78-.25-2.27-.61-4-.86-3.87s-.86,2.7-1.23,5.65c-1.11,7.62-.43,20.1,1.54,29.5,4.06,19.48,11.43,35.46,20.16,43.7,2,1.78,3.5,3.5,3.5,3.81,0,.74-6.39,4.55-11.37,6.82-5.47,2.46-11.92,3.93-26.12,5.78-17.21,2.27-16.78,2.15-32.57,10.2-1.84.92-2.64,1-5.53.43-1.84-.37-3.44-.74-3.5-.8a25.83,25.83,0,0,1,2-4.06,55.28,55.28,0,0,0,3.44-8.85c1.17-4.3,1.29-6,1-13.52-.31-10.14-1.84-16.29-6.33-25.32C354.14,385.49,337.79,373,305,359.74c-9.28-3.75-28.33-10.26-30.05-10.26-.49,0-1-1-1.23-2.27-.49-3.07-.49-20.71,0-24.4l.43-2.89,2.83,2.7c4.67,4.43,8.54,7.38,17,12.84,23.78,15.49,36.14,20.53,52,21.2,12.23.55,21.76-1.48,36.38-7.74,3.81-1.6,11.25-4.36,16.53-6.15,12.54-4.18,25.08-10.39,32.94-16.29,6.33-4.79,9.71-8.17,16.23-16.23,10.94-13.58,17.27-18.93,25.38-21.63,4.92-1.66,7-1.41,12.48,1.29,14.5,7.13,28.89,32.39,38.47,67.73,7.07,25.75,12.11,59.92,13.09,88.32.55,16.59-.86,22.62-7.68,32.7-10.94,16.1-21.63,22.74-66.13,41.05-8.85,3.63-22.37,9.28-30.05,12.54-13.46,5.65-23.78,9.59-25.14,9.59-.37,0,.31-1,1.48-2.34Zm48.55-37.06a30.13,30.13,0,0,0-.06-10.2c-1.41-9.89-5.1-17-12.11-23.48-3.75-3.44-10.63-7.44-12.78-7.44-1.17,0-1.6-.68,5.35,8.48,5.16,6.64,9.4,15.36,13.52,27.47,4.43,13,4.18,12.35,4.86,11.19a36,36,0,0,0,1.23-6Z"/><path class="cls-1" d="M301.42,521.18a29.45,29.45,0,0,1-4.43-1c-.12-.12,2.34-1.23,5.47-2.58,8.85-3.69,15.79-7.93,14.69-9-.31-.31-4.18.43-9.1,1.72-4.67,1.17-11.74,3-15.61,4-14.44,3.75-23.05,3.81-30.61.18-3.07-1.48-3.32-1.72-2-2,.86-.12,5.78-1.35,11-2.7,17-4.3,31.77-10.57,42.47-17.95,5-3.38,16.16-14.26,15.79-15.36a3.7,3.7,0,0,0-1.78-1.41c-1.23-.61-2.64-.55-7.81.43-11,2.15-19.79,1.17-23.17-2.52-1.17-1.29-1.17-1.29,1-3.13a51.9,51.9,0,0,1,7.68-4.49c11.37-5.53,20.83-6.88,33.19-4.67,14,2.52,29,8.11,34.23,12.84s11.31,22.25,9.34,27.41c-.49,1.23-1.72,1.23-6.21.06a35.61,35.61,0,0,0-7.25-.92c-7.31,0-12.23,1.91-29.81,11.62s-25.75,11.8-37.12,9.53Z"/><path class="cls-1" d="M183.67,506.74c-38-3-65.64-9.89-90.34-22.56C67.58,471,53.57,456,48.4,436.18c-2.83-10.88-.8-19.3,7.87-32.51C60,398,70.71,387.69,78,382.9c14.26-9.4,36.08-18.68,50.58-21.51,5-1,5.84-1,12-.06,8.48,1.29,11.37.74,21.63-4.49a57.42,57.42,0,0,1,9.4-3.38c5.22-1.41,6.58-1.54,17.95-1.35,11.19.12,12.72,0,17.09-1.23,6-1.78,6.33-1.78,18.31.43,5.47,1,14.14,2.27,19.24,2.77a164.4,164.4,0,0,1,37.92,8.3c21.82,7.25,38.6,14.5,48.74,21.14a83.8,83.8,0,0,1,18.25,16.9c10.69,14.07,13.52,32.76,7,45.54-1.48,2.89-4.73,6.76-5.72,6.76-.25,0-4.61-.68-9.59-1.54s-9.89-1.54-10.88-1.54-1.78-.25-1.78-.49a18.91,18.91,0,0,1,3.13-3.5c4.86-4.73,9-11.06,10.51-15.86,3-10-1-20.4-11.37-29.19-4.18-3.63-20.22-14.63-24.09-16.53-1.35-.68-5.35-2.27-8.91-3.56s-11-4.43-16.59-7.07c-17.39-8.17-21.45-9.22-35.77-9.22A92.82,92.82,0,0,1,228.53,363c-8.36-1.48-12.78-1.54-19.73-.37-10.14,1.72-10.69,1.72-18.19.37-10-1.84-14.87-1.72-23.54.55-8.85,2.4-24.46,6.21-34.11,8.36-14.5,3.26-20.16,5.53-28.95,11.55-2.64,1.78-8.6,5.47-13.15,8.17C77,399.79,70.7,407.11,68.43,418c-1.66,8-.86,15.06,2.58,21.33a72.25,72.25,0,0,0,7.19,9.22c3.07,3.38,6.82,7.68,8.36,9.53,6.27,7.44,15.79,12.54,35.46,19.11,16.66,5.59,32.76,8.73,44.5,8.73a94.92,94.92,0,0,1,13.58,1.84c5.22,1,12,2,15,2.21,6.64.43,17.58-.49,27.53-2.46a114.12,114.12,0,0,1,18.19-1.91c16-.55,23.35-1.41,32.57-3.81,12-3.07,10.94-3.07,16-.31a43,43,0,0,0,8.42,3.56c2.09.61,3.63,1.29,3.38,1.54-1.11,1-12,6.08-17.7,8.24-25.32,9.4-67.54,14.44-99.87,11.92Z"/><path class="cls-1" d="M192.82,479.76c-2.21-.25-7.56-1.23-11.8-2.09s-12.91-2-19.17-2.52c-23.91-2-47.32-8.42-59.8-16.47a37.7,37.7,0,0,1-7.25-6.27c-1.66-2-5.35-6.08-8.11-9.16-5.59-6-7.74-9.65-8.79-14.5-1.35-6.45,1.78-15.73,7.31-21.39,1.78-1.78,6-4.67,10.88-7.44,4.43-2.46,10.2-6.08,12.91-8.05,9.65-6.94,15.24-9,37.8-13.83,5.59-1.17,14.14-3.26,19-4.61,10.45-2.89,14.93-3.13,23.17-1.17,6.15,1.48,10.69,1.41,21.94-.37l6.7-1,9.71,1.66a124,124,0,0,0,20,1.78c12.23.18,13,.43,29.07,8,6,2.83,14.26,6.27,18.5,7.68,8.36,2.77,12.78,5.22,22.06,12.17,7,5.22,11.86,10,14.07,13.71,1.35,2.4,1.6,3.44,1.6,7.68,0,6.51-1.78,10-8.54,16.66-5.72,5.65-9.65,8.48-19.48,13.83-3.87,2.09-10.2,5.9-14.07,8.48a93.2,93.2,0,0,1-12,6.64c-9.28,3.75-21.69,6-39,6.88-5.9.31-15.18,1.29-20.59,2.15-11.43,1.78-20.47,2.34-26.18,1.6Zm51.63-12.35c2.46-.86,2.4-1.66-.31-2.77-2.52-1-8.91-.92-9.28.18s1.91,2.15,7.25,3.2a15.54,15.54,0,0,0,2.34-.61ZM214.77,465c3.56-3.63-6-7.56-14.75-6-4.24.74-7.74,2.46-7.74,3.87,0,.61,1.66,1.29,5.1,2.15C203.71,466.55,213.17,466.49,214.77,465ZM173,461.32c8-2.09,14.63-5.65,19.67-10.69,5.41-5.47,7.13-8.91,7.44-15.12.25-3.93.06-5-1.17-7.38-3.26-6.39-11.74-8.42-22.92-5.53-14.87,3.81-25.63,14.32-26.55,26-.55,6.45,1.54,10.63,6.21,12.78,3.44,1.6,11,1.54,17.33-.06Zm81.8-6.7c3.63-1.66,4.67-4,4.36-9.59-.61-13-15.12-27.47-29.87-29.93-7.87-1.29-13.58.74-16.23,5.84-1.84,3.56-1.78,11,.12,16,4,10.57,18.56,18.74,33.49,18.81,4.18,0,6.15-.25,8.11-1.11ZM137,452.1c3.07-.86,4.43-2,4-3.2-1.35-3.44-15.73-2.89-19,.74-1,1.17-1,1.23,1,2.09,2.4,1.11,10.82,1.29,14.07.37Zm146.58-3.93a40.49,40.49,0,0,0,7-2.83c3.56-1.78,3.87-2,2.77-2.64-1.78-1-10.88-1.29-15.18-.43a32.49,32.49,0,0,0-6.51,1.91c-2.4,1-2.64,1.29-1.84,2,1,1.11,6.39,2.7,8.85,2.77a18.56,18.56,0,0,0,4.92-.8Zm-166.8-14.81c2.58-.37,5.47-2.4,5.47-3.75,0-1.72-3.75-3.32-7.74-3.32s-7,.8-9.59,2.58c-3.13,2.15-1.6,4.06,3.81,4.86,2.77.37,3.81.37,8-.37Zm185.42-2.52c8.48-1.91,13-6.08,13-12,0-7.68-8.36-15.12-20.28-18.13-7.31-1.84-18.87-.43-26.12,3.26-5.41,2.77-9.53,7.87-9.53,11.86,0,5.72,6.58,11.68,16,14.38,7.62,2.21,18.62,2.46,26.86.61ZM158.78,416.15c18.74-4.92,18.25-20.34-.92-27.41-3.5-1.29-5.1-1.48-12.29-1.48-8.85,0-12.17.61-17.52,3.26-5.65,2.7-8.91,6.76-8.91,10.88,0,9.4,14.07,16.78,30.24,15.92A62.3,62.3,0,0,0,158.78,416.15Zm-54.27-1.91c6-2,6.15-5.16.25-5.16-5.41,0-13,4.73-9.16,5.72a17.87,17.87,0,0,0,8.91-.55ZM226.38,404c8.73-1.84,12.35-6.58,9.59-12.41C232.22,384,222.88,379.4,211,379.34c-8.42,0-14.26,1.72-18,5.47-2.27,2.21-2.64,2.95-2.64,5.16,0,7.74,6.82,12.66,20.9,15.06,2.21.37,11.43-.25,15.06-1Zm43.94-10.63c1-.55,1.84-1.35,1.84-1.91,0-1.35-5.22-3.44-8.54-3.5s-7.44,1.23-7.44,2.34c0,.68,3.13,2.52,6.15,3.56a14.08,14.08,0,0,0,8-.49Zm-85.73-5.47c1-.74,1-1,.37-1.84-1.72-2.09-10.88-3.07-12.29-1.35-2.09,2.46,8.91,5.41,11.92,3.2Z"/><path class="cls-1" d="M166.64,443.62c4.3-4.36,12.35-8.11,17.58-8.11,2.27,0,1.29.61-8.73,5.78-10.39,5.35-12.23,5.84-8.85,2.34Z"/><path class="cls-1" d="M237.57,440.06c-4.55-1.11-6.94-2.34-9.77-5-4.67-4.43-2.4-4.12,8.6,1.11,9.53,4.55,10,6.08,1.17,3.93Z"/><path class="cls-1" d="M273,416.58c.18-.31,2.34-1.11,4.73-1.66,3.38-.86,5.84-1,10.63-.74,5.41.31,11.37,1.35,10.69,1.91s-26.43,1-26.06.49Z"/><path class="cls-1" d="M143.1,402.51c-7.38-.49-9.53-.92-8.36-1.54,1.54-.86,12.23-.25,15.73.92l2.77.92-3.69-.06c-2,0-4.92-.12-6.45-.25Z"/><path class="cls-1" d="M218.7,393.29c-7.74-1.41-13.21-2.7-13.77-3.32-1-1,6.21-.25,12.29,1.29,6.64,1.72,7.68,3.13,1.48,2Z"/><path class="cls-1" d="M548.12,448.11c-.18-12.72-2.89-42.16-5.29-56.85l-1-6.45,2.52-7.38c5-14.26,8.85-32.45,10.94-51,1.23-11,1.35-35.77.25-46.4-4.67-45.17-19.36-86.59-43.33-122-19.36-28.64-45.6-54-72.71-70.12-6.82-4.12-6.88-4.12-7.5-7.07-2-9.16-6.33-17.88-11.43-23C414,51.34,406,48.14,396,48.14c-6.88,0-11.06,1.17-18.74,5.22l-5.9,3.07-9.53-2.15a281.38,281.38,0,0,0-30.67-5.41c-6.27-.8-32.76-1.17-33.43-.55a27.86,27.86,0,0,0,.06,5.1l.37,4.73h8.73a228.61,228.61,0,0,1,30.73,2.15c8.17,1.17,26.12,4.73,26.12,5.22,0,.18-2.7,3.5-6,7.38-9.59,11.31-24.58,29.75-31.53,38.72-3.5,4.55-10.14,12.17-14.69,16.9-11.06,11.37-13.83,15.55-16.59,24.77a96.17,96.17,0,0,1-3.44,9.53c-4.36,10.08-4.61,11.12-5.16,22.25-.31,5.78-1,12.78-1.48,15.67-1.23,6.58-1.29,19.36-.06,27,1,7.19,2.34,11.06,7.38,22.62,4.06,9.46,5.65,14.57,6,19.11.18,3.26-.18,3.56-7.44,6.15-6.64,2.4-11.62,5.53-18.19,11.43a104.37,104.37,0,0,1-8.73,6.94c-10.26,6.94-18.5,16-29.07,32.08s-9.53,14.75-11.92,14.75a85.83,85.83,0,0,1-9.1-1.23c-5.72-1-8.36-1.84-15-4.86-11.49-5.29-16-6.45-25.44-6.45-9-.06-15.06,1.29-22.31,5-5.59,2.77-8,4.61-14.63,11.06L131,349.52,121.54,352c-21.57,5.59-35,11.37-49.29,21.26-2.64,1.84-4.92,3.26-5,3.13s-1.35-4.24-2.77-9.1a300.47,300.47,0,0,1-7.68-37.49c-1.91-14.93-1.91-43,.06-57l.37-2.64,4.73.37c9.28.74,118.18,2.15,163.54,2.15,45.85,0,56.17-.37,59.49-2.09,3.5-1.78,4.12-3.13,4.06-8.6,0-4.49-.43-6.15-3.87-16.1-5.16-15-6.21-20.34-6.64-33.13-.18-7.07-.55-10.88-1.11-11.74s-3.81-3.32-7.5-5.78c-13.83-9.28-21.82-16.41-31-27.41-7.5-9-11.86-13.09-16.23-15.06-2.89-1.35-9.16-1.54-15.79-.49a33.9,33.9,0,0,1-10.26-.06c-4.43-.55-6.64-.55-8.42-.06-4.3,1.23-13.15,8-33.49,25.87-5.22,4.55-11,9.59-12.84,11.12-9.71,8.05-26.73,19.61-42.71,28.82-9.65,5.59-32.51,17.21-33.92,17.21-.43,0-.06-2,1-5.65A241,241,0,0,1,138.2,116.89C161.8,96.12,182,84.44,211.64,74.18l11.68-4.06.18-4.49.18-4.55-2.64.43c-4.18.68-19.73,5.65-28.46,9-34.29,13.52-69.82,41.61-95.75,75.9-24.77,32.76-40.87,70.62-48,113-5.59,33.13-5.16,62,1.41,94.15,1.91,9.16,6,23.91,7.74,28.27a23,23,0,0,1,.92,2.4,41.1,41.1,0,0,1-3.5,4.06c-6.82,7.62-13.71,19.42-16.53,28.33-.61,2-1.29,3.32-1.6,3S35,414.4,32.78,408.56c-24.64-65.64-26.92-132.5-6.7-196.79A285.08,285.08,0,0,1,151.09,53C186.61,31.57,224.66,19,268.48,14.12c11.86-1.29,42.59-1.84,54.27-.92,39,3,75.41,12.84,108,29.19A287.92,287.92,0,0,1,566.12,186.63a294.75,294.75,0,0,1,22.56,91.76,410.44,410.44,0,0,1,0,44.37c-3.13,39.83-15.36,81.19-33.92,114.56-5.35,9.59-6.64,11.68-6.64,10.76Zm10.69-43.76c2.09-3.2,3.07-7.74,2.21-10.39-1.29-3.93-3.38-2.46-5.59,3.93-1.35,3.87-1.48,6.94-.43,8,1.23,1.23,2.27.86,3.81-1.54ZM39.92,374.54c1.48-2.77-.37-15.36-2.77-18.62-.74-1-1-1-1.91-.31-2.15,1.78-3,4.49-3,9.53s.8,7.5,3,9.77c1.48,1.41,3.81,1.23,4.67-.37Zm519.14-3.2a10.87,10.87,0,0,0,2.21-4.36c.49-2.46,0-5.84-.86-5.84-.31,0-1.35,2.21-2.4,4.92-2.83,7.31-2.46,9.28,1,5.29Zm16.59-24a10,10,0,0,0,2.58-4.3c1.54-5.41-2.15-10.82-7.5-11-5-.12-8.67,6.82-6.39,12.11,1.84,4.49,7.81,6.15,11.31,3.2ZM35.06,319.53a9.48,9.48,0,0,0,.49-12.66C31.12,301.28,23,305.46,23,313.32a7.67,7.67,0,0,0,4.61,7.44A6,6,0,0,0,35.06,319.53Zm188.25-13.71c13.58-1.17,21.33-2.58,20.16-3.69-1.78-1.84-43-3.32-81.19-2.89-34.36.37-51.32,1.41-48.61,2.95,2.27,1.23,25.2,3.5,43.27,4.24,15.18.61,56.42.25,66.38-.61ZM574.79,292c4.06-2,5.84-8.17,3.56-12.54-3.2-6.39-10.26-6.21-13.15.37-2.15,4.92-.61,9.71,3.87,12,2.58,1.35,3.2,1.35,5.72.18ZM235.6,288c22.06-.86,33.37-2,33.06-3.44-.43-2.15-19.24-3.26-67.79-3.93-74.43-1.11-108.47-.68-125.62,1.54-10.26,1.35-10,1.78,2.09,3,15.67,1.66,34.42,2.34,74.06,2.77,59.8.68,67.73.68,84.2.06ZM33.22,271.41c1.54-2.83,1.35-9.89-.31-11.49-1-1-1.23-1-2.89.86-3,3.32-3.87,9.71-1.78,12.23C29.53,274.55,31.93,273.81,33.22,271.41Zm539.11-29a9.42,9.42,0,0,0,1-7.44c-1-3.56-3.32-6.94-5.65-8.17-1.84-.92-2-.92-2.77.12a9.7,9.7,0,0,0-.8,4.24c0,8.48,5.35,15.79,8.24,11.25Zm-529-14.63a8.65,8.65,0,0,0,4.3-6.7c.92-6.76-5.53-10.57-10.57-6.15-5.72,5-3.63,13,3.69,14a8,8,0,0,0,2.58-1.17Zm517.91-5.29c.74-1.91.37-5.22-.86-7.62-1.48-3-5.22-6.76-6.58-6.76-2.27,0,.49,10.63,3.63,14C559,223.71,560.72,223.89,561.27,222.48ZM53.13,192.3c1.91-3.2,3.81-9.77,3-10.51-.61-.61-6,5.41-7.25,8.05-1,2.15-1.41,6-.61,6.76s2.95-1.17,4.86-4.3Zm502.18-13.52c.55-1.6-10.2-11.49-11.31-10.45-.8.86,2,6.39,4.49,8.91,2.21,2.21,3,2.64,4.61,2.46,1.11-.12,2.09-.55,2.21-.92Zm-351-32.7a13.25,13.25,0,0,0-.31-4.36,33.85,33.85,0,0,1,.31-14c1.48-5,4.36-8.67,10.08-12.72,6.82-4.92,7.62-6.45,7.13-13.09-.37-4.73-.25-5.22,1.48-8.6,1.23-2.46,3.75-5.41,7.93-9.46,8.3-8.05,9.1-9.77,8.85-18.93-.18-8.42.74-12.23,3.81-15.79,5.53-6.51,16.53-7.07,28.46-1.54,4.12,2,9,6,10.45,8.85,1.6,3.2,1.17,6.82-1.29,10.14-3.32,4.55-3.56,5.72-2.52,10.32,1.23,5.35,1.17,8.42-.31,11.25-3.13,6.21-15.86,12.6-21,10.63-3.75-1.41-4.49-.12-5.41,9.71-.68,6.88-1.84,9.83-5.16,12.72-2.77,2.46-4.92,3.13-12.66,3.81s-10.14,1.35-13.89,3.93c-5.22,3.5-9,10.63-8,14.81.92,3.75,3.32,2.34,8.24-4.79,2.89-4.18,5.9-5.41,15.18-5.9a50.31,50.31,0,0,0,10-1.41c7.87-2.77,12.6-9.34,14.32-19.91.49-3.13,1-4.49,1.6-4.49,1.91,0,10.51-3.26,13.71-5.22,6.7-4.12,10.45-8.79,12.05-15,.86-3.38.86-4.67.31-8.42-.74-4.36-.74-4.43,1.11-7.25C294,63,292.37,53.6,284.19,45.91a41.51,41.51,0,0,0-27.35-10.63c-7.5,0-12.48,1.72-16.84,5.72-6.33,5.78-8.36,11.12-8.36,22.06,0,8.36.37,7.62-8.24,16.59a68.32,68.32,0,0,0-8.05,9.83c-1.6,3-1.84,4.12-2,9.83l-.25,6.45-4.67,3.38c-8.3,6.08-12.41,13.58-12.6,23.35-.12,6.08,1,10,3.87,13,2.4,2.46,3.93,2.64,4.61.55Zm324.81-5c0-2-2.15-5-5-7.13-3.26-2.27-9.1-5.29-9.53-4.86-1,1,6.08,10.14,9.28,12.11C526.48,142.82,529.07,142.7,529.07,141Z"/><path class="cls-1" d="M535.58,360.23a249.39,249.39,0,0,0-9.34-31.65c-8.73-21.82-17.76-34.6-31.9-45.17-5-3.69-7.68-6.27-9.71-9a55.73,55.73,0,0,0-13.4-13c-7.5-4.79-30.48-15.12-48.8-22-5.72-2.09-10.57-3.93-10.69-4.06a21.47,21.47,0,0,1,2.89-3.56,33.29,33.29,0,0,0,4.73-6.82,45.48,45.48,0,0,0,3.38-15.12c0-2,.55-3.26,2.52-5.84,6.21-8.24,9.59-17.27,11.43-30.54,1.84-13,1.11-44.56-1.6-71a34.81,34.81,0,0,1-.37-5.41c.31-.37,13.15,8.48,19.36,13.34,48.06,37.49,80.26,94.71,89.11,158.56a254.07,254.07,0,0,1-1.6,78.11c-1.66,9.1-3.81,17.7-4.55,18.13-.25.12-.92-2-1.48-4.92Z"/><path class="cls-1" d="M145.26,350.39c7.31-6.58,13.09-9.83,21-11.62a44,44,0,0,1,17.7-.06c4.06.92,10.76,3.69,10.76,4.43,0,.31-4.36.55-9.71.55-11,.12-16.1,1.17-28.09,5.78a42.2,42.2,0,0,1-10.45,2.89l-3.69.25,2.46-2.21Z"/><path class="cls-1" d="M339.34,346.77c-8.79-1.72-15.55-4.55-27.35-11.55-15.73-9.4-28.33-20.34-32.08-27.78-4.86-9.71-1.78-15.73,11-21.63a50,50,0,0,1,8.3-2.95c3.5-.86,4.06-.8,8.79.49,2.77.8,6,1.66,7.19,2l2.15.55-5.22,2.77c-2.89,1.54-7.31,4.12-9.83,5.78-5.1,3.38-12.35,10.2-11.25,10.57.37.12,5.29-1.84,10.94-4.43,15-6.88,28-11,28-8.91,0,.31-1.54,4.73-3.38,9.83-4.06,11.06-9,27.66-8.24,27.66.31,0,1.78-1.6,3.32-3.5,3.2-4.06,7.81-12.78,12.91-24.64l3.56-8.17,2.83.31c1.54.18,4.36.49,6.27.74l3.5.37,1,3.5c.49,1.91,1.91,8.54,3.13,14.81,2.34,12,3,14.5,3.56,12.91s2.27-21.14,2.27-26.18c0-3.32.25-5.22.8-5.59a37.72,37.72,0,0,1,6.51-2c5.65-1.41,5.78-1.41,6.64-.25.49.61,3.81,5.9,7.44,11.62,6.33,10.2,12.23,18.74,12.84,18.74,1.35,0-3.81-14.26-8.91-24.58-2.58-5.22-4.79-9.71-4.92-10s.12-.49.61-.49a38.91,38.91,0,0,0,6-2.7l5.22-2.64,5.84,2.46c3.2,1.29,10.08,4.73,15.24,7.62s9.53,5.1,9.77,4.92c1.17-1.23-11.12-14.5-17.82-19.17a19.59,19.59,0,0,1-3.5-2.83c0-.55,6.82-10.69,7.38-10.88.74-.31,13.89,5.22,18.44,7.68,2.21,1.23,5.84,3.44,8.17,4.86s4.12,2.4,4.12,2.09a34.27,34.27,0,0,0-3.87-5.35c-4.61-5.65-12.05-11.86-20-16.59-4.86-2.95-5.72-3.69-5.41-4.73a12.47,12.47,0,0,0,.37-2.34c0-.92,2.34-.31,14.93,4.06,27.78,9.53,35,12.91,44.25,20.83a20.65,20.65,0,0,1,3.5,3.5c0,.31-1.48,1-3.2,1.6a48.24,48.24,0,0,0-17.64,10.39c-1.48,1.35-6,6.21-9.89,10.76s-9.34,10.32-12,12.78c-9.89,9.22-23.54,16.59-39,21-2.52.74-9,3.26-14.44,5.53-13.46,5.78-19.24,7.38-27.66,7.68a51.89,51.89,0,0,1-11.19-.55Z"/><path class="cls-1" d="M249.86,344.61c-12.05-2-13.34-2.34-13.09-3.32.43-1.84,6.45-11.06,11.74-18.13,4.86-6.51,19.79-22.25,21.14-22.25,1.17,0,.8,6.21-.8,13.64A119.33,119.33,0,0,0,266,340.24c0,6.64,0,6.76-1.35,6.7-.8-.06-7.44-1.11-14.81-2.34Z"/><path class="cls-1" d="M363.49,278.92c.31-.31,3.32-2.64,6.7-5.22,7.44-5.59,13.09-11.37,20-20.4l5.16-6.76.18,3.93c.49,10.76-6.51,20.83-17.58,25.2-5.84,2.34-16,4.61-14.5,3.26Z"/><path class="cls-1" d="M323.18,277c-8.05-1.17-12-3.75-15.12-9.89-3.87-7.74-6-14.93-6-20.83-.06-8.6,1.78-10.57,12.23-13.21,10.26-2.64,21.63-1.72,34.29,2.77,10.26,3.63,16.1,4.43,22.68,3,5.29-1.17,8.05-2.64,13.77-7.62A65.73,65.73,0,0,1,395.27,224a35.72,35.72,0,0,0,13.64-12.11c1.35-2,2.64-3.75,2.95-3.75s.43,1.91.43,4.3a20.09,20.09,0,0,1-5.35,14.14,18.22,18.22,0,0,1-10.39,6.21c-4.92,1.23-6.21,2.15-8.79,6.58-8.48,14.57-20.71,25.75-34.85,32a74.19,74.19,0,0,1-18.38,5.29c-7.25.8-8,.86-11.37.37Zm.61-21.08c3.63-1.78.37-4.24-6.15-4.61-4-.25-8.6.92-8.6,2.21,0,1,2.21,2.58,4.67,3.13,2.77.68,7.87.31,10.08-.74Zm11-11.86c1.41-.55,2.46-1.29,2.34-1.66-.37-1.11-6.58-3-10.94-3.32s-12.41,1-14.38,2.52c-1.11.8-1,.86.31,1.6,4.49,2.4,17.58,2.89,22.68.86Z"/><path class="cls-1" d="M78.57,251.08c.49-.31,4.36-2.34,8.6-4.49a239.16,239.16,0,0,1,45.42-17.82c6.76-1.84,6.58-1.48-2.15,3.81C117.29,240.63,104,246,87.36,250c-8,1.91-10.39,2.21-8.79,1.11Z"/><path class="cls-1" d="M296.14,231.29c0-.06-.31-2.4-.61-5.16a24.39,24.39,0,0,1,.25-9.28c1.11-5.47,2.58-8.3,7.68-15.18,5.47-7.31,6.58-9.28,7.44-12.72,2-7.93-3.32-10.82-11.49-6.33-2.15,1.17-4.06,2.15-4.18,2.15-1,0,.06-2.77,1.78-4.55a11.27,11.27,0,0,1,9.77-3.26c3.63.43,5.59,1.6,7.19,4.3,2.83,4.61,1,10.63-6.21,20.4-6.39,8.6-8.48,13-8.91,18.5s-1.54,11.31-2.15,11.31c-.31,0-.55-.06-.55-.18Z"/><path class="cls-1" d="M213.23,209.78c-1-1.48-4.18-7.07-7.19-12.41-8.36-15.36-9.77-17-13.71-15.3-2.58,1.11-8.42,7-14.5,14.69C172.11,204,167,210,166.4,210c-.18,0,3.32-7.5,7.87-16.66s8.36-17.33,8.54-18.19c.37-1.48.37-1.54-1-.8-1.91,1-4.92,3.38-12.84,10-8.73,7.38-27,19.67-28,18.81-.37-.43,33.13-29.93,39.09-34.48,6.33-4.79,10.82-7.25,13.21-7.25a62.91,62.91,0,0,1,6.76.92c4.55.86,5.41.86,8.73,0,4.86-1.23,6-1.17,8.48.37,3.26,2,5.47,5.78,9.46,16.35,2,5.35,5,12.35,6.64,15.55,3.69,7.5,3.63,7.31,1.72,5.53-.92-.8-4.06-5.22-6.94-9.83-8.73-13.64-11.74-17-15.79-17.64-1.84-.31-2.46-.06-4.06,1.54s-1.84,2.34-1.84,4.92a49.08,49.08,0,0,0,.86,7.62,180.4,180.4,0,0,0,7.19,23.05,8.85,8.85,0,0,1,.86,2.64,17.61,17.61,0,0,1-2.09-2.64Z"/><path class="cls-1" d="M339.77,203.38c0-.86,3.93-3.2,7-4.24a16.8,16.8,0,0,1,7-.74c7.44.61,9.65,2.95,2.83,2.95a103.83,103.83,0,0,0-15.43,2.15c-.8.18-1.41.12-1.41-.12Z"/><path class="cls-1" d="M416.29,194.23c-1.35-.49-4.18-1.35-6.33-1.91-3.75-.92-4-1.11-7.13-5.35-12.84-17.27-33.74-29.44-61.52-35.71-8.91-2-23.35-2.77-30.79-1.54-2.58.37-4.79.55-5,.37-.55-.55,6-8.85,9.28-11.8,6.33-5.59,16.9-9.46,25.75-9.46,5.72,0,20.65,2.52,27.66,4.67,2.09.68,1-1-1.78-2.58-8-4.67-19-8.24-29.56-9.59-3.13-.43-5.72-.92-5.72-1.11,0-1.66,12.84-19.17,20.53-28C374.26,66.39,378.8,62,385.87,59.32c5.59-2.09,9.28-2.64,13.52-1.91,12.41,2.21,20.22,11.12,23.6,27.23,1,4.55,3.32,29.56,4.73,50.58.92,13.89.43,36.32-1,42.78-2,9.34-5.35,17.27-7.25,17.15a17.64,17.64,0,0,1-3.2-.92Zm2.95-17c.25-1.11.68-7.56,1-14.26.92-18.13-.18-39.39-3.38-65.82-1.91-15.43-2.15-16.9-2.7-16.9-.25,0-1,4.61-1.6,10.32-1.29,11.55-1.54,29.07-.68,46.77l.55,11.31-6.7-6c-9.46-8.48-24.09-18.07-20.1-13.09,22,27.16,28.52,36.81,31.28,46.4,1.11,3.69,1.78,4.06,2.27,1.23Z"/><path class="cls-1" d="M331,191.15c1.23-2.34,7.5-7.68,10.69-9.16,11.12-5.16,21.2-3.93,28.76,3.5,1.72,1.66,3,3.2,2.89,3.32a9,9,0,0,1-2.95-1.23c-5.35-2.89-9-3.75-16.53-3.75-9.16,0-12.11,1-21.76,7.38-1.78,1.17-1.78,1.17-1.11-.06Z"/></svg>